<svg xmlns="http://www.w3.org/2000/svg" viewBox="305 70 390 320" preserveAspectRatio="xMidYMid meet">
<path fill="#ffffff" opacity="1.000000" stroke="none" d="&#xA;M398.929291,267.794647 &#xA;&#x9;C402.293854,266.490417 406.006805,267.161377 408.372955,264.347595 &#xA;&#x9;C407.933411,261.901886 405.979797,261.026367 404.455627,259.847534 &#xA;&#x9;C393.503876,251.377182 383.159332,242.203140 373.233643,232.573181 &#xA;&#x9;C348.109039,208.197128 356.425262,168.962219 390.014313,155.828568 &#xA;&#x9;C397.705322,152.821304 401.680511,148.860474 404.787445,141.330124 &#xA;&#x9;C414.118622,118.714302 439.309784,105.934547 463.847443,110.449127 &#xA;&#x9;C467.761108,111.169182 470.043976,110.454475 472.648804,107.208008 &#xA;&#x9;C492.061066,83.013985 532.623901,82.657997 552.931458,106.520416 &#xA;&#x9;C555.944824,110.061264 558.656616,111.043846 563.163696,110.286942 &#xA;&#x9;C589.712646,105.828430 615.184998,121.096237 623.724731,146.618546 &#xA;&#x9;C625.107483,150.751022 627.158936,152.598068 631.307617,153.865814 &#xA;&#x9;C647.513916,158.818039 659.673218,168.783493 665.124451,185.183243 &#xA;&#x9;C671.409668,204.091782 665.843811,220.291626 651.750977,233.722763 &#xA;&#x9;C641.626038,243.372253 631.277710,252.800232 620.030029,261.171814 &#xA;&#x9;C618.861816,262.041290 617.529785,262.830414 617.035034,264.797913 &#xA;&#x9;C625.106506,267.095673 633.088196,269.279236 641.013184,271.651855 &#xA;&#x9;C647.400391,273.564087 653.689087,275.775330 659.288574,279.543274 &#xA;&#x9;C668.856689,285.981842 670.143677,293.659515 662.757324,302.710449 &#xA;&#x9;C655.492249,311.612854 646.212463,318.100342 636.205933,323.590729 &#xA;&#x9;C613.282043,336.168640 588.457458,342.886414 562.886108,347.218170 &#xA;&#x9;C542.472961,350.676147 521.881714,352.223145 501.211823,351.098145 &#xA;&#x9;C463.522430,349.046844 426.838470,342.464905 392.795380,325.094269 &#xA;&#x9;C383.249512,320.223480 374.346375,314.385803 366.858978,306.621246 &#xA;&#x9;C354.569794,293.877197 356.211823,284.448273 372.063232,276.764160 &#xA;&#x9;C380.497253,272.675690 389.459869,270.105438 398.929291,267.794647 &#xA;M370.068237,190.750610 &#xA;&#x9;C367.740173,200.279480 368.870544,209.225174 374.411377,217.498383 &#xA;&#x9;C379.868408,225.646484 387.402863,231.767548 394.593811,238.193649 &#xA;&#x9;C403.168762,245.856506 412.107910,253.104630 421.414337,259.866089 &#xA;&#x9;C425.541138,262.864319 424.420258,267.041534 424.101898,270.828430 &#xA;&#x9;C423.793060,274.501465 420.079224,273.699890 417.712189,274.158752 &#xA;&#x9;C409.372437,275.775574 401.054474,277.478821 392.897430,279.845184 &#xA;&#x9;C385.698486,281.933655 378.466095,284.072540 372.201996,288.393860 &#xA;&#x9;C368.595398,290.881897 368.632935,292.827454 372.231354,295.248810 &#xA;&#x9;C375.843323,297.679291 379.858002,299.339996 383.997070,300.677002 &#xA;&#x9;C418.080261,311.686981 453.385406,314.921295 488.851227,316.538147 &#xA;&#x9;C514.992981,317.729858 541.169617,316.995819 567.248047,314.600159 &#xA;&#x9;C589.479309,312.557922 611.551392,309.333313 633.149719,303.516296 &#xA;&#x9;C640.218567,301.612457 647.224731,299.294250 653.543701,295.454559 &#xA;&#x9;C657.693237,292.933197 657.643738,290.738403 653.583191,288.022339 &#xA;&#x9;C649.815063,285.501862 645.601868,283.901825 641.349304,282.414246 &#xA;&#x9;C630.157593,278.499237 618.634338,275.887360 606.962646,273.962524 &#xA;&#x9;C603.196411,273.341431 601.617432,271.841705 601.647034,267.797546 &#xA;&#x9;C601.676880,263.726746 602.930054,261.057098 606.275696,258.617401 &#xA;&#x9;C620.565613,248.196716 633.897705,236.648514 646.490662,224.196594 &#xA;&#x9;C661.846741,209.012497 660.113770,186.552719 644.806946,172.833603 &#xA;&#x9;C639.726685,168.280304 633.953552,164.854660 626.643311,163.239517 &#xA;&#x9;C624.565002,184.308167 613.507263,200.218384 600.914673,215.349915 &#xA;&#x9;C600.488403,215.862106 600.106323,216.414627 599.649597,216.897186 &#xA;&#x9;C598.590881,218.015839 597.456299,219.193100 595.840454,217.869019 &#xA;&#x9;C594.374207,216.667480 594.783875,215.234390 595.634644,213.837875 &#xA;&#x9;C596.501526,212.414886 597.386963,211.002090 598.212585,209.555359 &#xA;&#x9;C604.237427,198.998169 610.611938,188.626633 613.999878,176.778290 &#xA;&#x9;C620.884827,152.699905 608.568726,128.995850 585.263733,121.842239 &#xA;&#x9;C577.672852,119.512154 570.000305,119.409019 561.604919,121.357040 &#xA;&#x9;C566.282837,136.184158 563.901306,150.408066 560.533691,164.578903 &#xA;&#x9;C554.723389,189.029129 549.856079,201.871429 545.542175,204.234940 &#xA;&#x9;C544.282959,202.648224 545.222900,201.035660 545.559387,199.484833 &#xA;&#x9;C549.336304,182.078171 552.677246,164.598297 554.259949,146.833191 &#xA;&#x9;C555.411438,133.907471 553.195801,121.877151 544.023804,112.017578 &#xA;&#x9;C532.636230,99.776321 513.115540,95.782074 496.945770,102.197594 &#xA;&#x9;C480.675507,108.652977 472.100616,121.671402 472.025116,140.011093 &#xA;&#x9;C471.942200,160.155563 476.643433,179.602768 480.628235,199.154877 &#xA;&#x9;C481.005310,201.005035 481.850098,202.874084 480.767365,204.726349 &#xA;&#x9;C478.812836,204.455368 478.454742,203.034897 477.903870,201.889801 &#xA;&#x9;C473.626282,192.997589 470.716217,183.595062 468.141022,174.124252 &#xA;&#x9;C463.678925,157.713837 459.360596,141.221085 463.771576,124.010437 &#xA;&#x9;C464.545349,120.991371 462.407623,120.735764 460.384827,120.390190 &#xA;&#x9;C443.159332,117.447350 424.993591,126.059204 416.092438,141.328629 &#xA;&#x9;C407.380249,156.274078 409.150482,171.335617 415.620483,186.403946 &#xA;&#x9;C419.707245,195.921783 425.031067,204.784836 430.455872,213.583374 &#xA;&#x9;C431.345764,215.026718 432.418732,216.573715 430.415985,217.902328 &#xA;&#x9;C428.810547,218.967346 427.619293,218.008774 426.582306,216.747971 &#xA;&#x9;C414.673370,202.268478 403.186646,187.575928 400.387238,168.162628 &#xA;&#x9;C400.168640,166.646774 400.297760,164.757767 398.670044,163.727676 &#xA;&#x9;C385.815277,166.246735 375.225708,176.057465 370.068237,190.750610 &#xA;M479.297607,339.002686 &#xA;&#x9;C530.677002,344.400757 580.335388,338.747101 627.389709,316.420135 &#xA;&#x9;C550.814392,331.357178 474.304047,331.250305 397.761078,315.979523 &#xA;&#x9;C423.118958,329.013214 450.254456,335.717163 479.297607,339.002686 &#xA;z"></path>
<path fill="#ffffff" opacity="1.000000" stroke="none" d="&#xA;M537.999878,305.428711 &#xA;&#x9;C506.846893,305.420258 476.189514,305.108154 445.543396,305.561371 &#xA;&#x9;C434.167419,305.729614 428.729645,297.296692 428.825867,288.788727 &#xA;&#x9;C429.021729,271.465546 428.832245,254.138321 428.952026,236.813797 &#xA;&#x9;C429.032532,225.168335 434.639252,219.701859 446.206177,219.699020 &#xA;&#x9;C490.852814,219.688034 535.499451,219.689713 580.146118,219.701782 &#xA;&#x9;C591.362061,219.704819 597.132507,225.398560 597.165771,236.558350 &#xA;&#x9;C597.217957,254.050156 597.210449,271.542175 597.210815,289.034119 &#xA;&#x9;C597.211060,299.761566 591.603333,305.448456 580.978516,305.458923 &#xA;&#x9;C566.818970,305.472900 552.659424,305.441040 537.999878,305.428711 &#xA;M588.762024,256.500000 &#xA;&#x9;C588.755615,249.669144 588.809448,242.837524 588.724182,236.007645 &#xA;&#x9;C588.652466,230.263855 586.644714,228.202576 580.828796,228.195862 &#xA;&#x9;C535.679077,228.143814 490.529358,228.130615 445.379730,228.167847 &#xA;&#x9;C439.322510,228.172836 437.353973,230.209076 437.329102,236.368912 &#xA;&#x9;C437.258423,253.862076 437.259705,271.355865 437.324402,288.849060 &#xA;&#x9;C437.347015,294.958740 439.376312,296.986328 445.437500,296.990448 &#xA;&#x9;C490.420624,297.020966 535.403748,297.019958 580.386902,296.977966 &#xA;&#x9;C586.677124,296.972107 588.673279,294.888580 588.719360,288.488220 &#xA;&#x9;C588.793701,278.159241 588.754456,267.829437 588.762024,256.500000 &#xA;z"></path>
<path fill="#ffffff" opacity="1.000000" stroke="none" d="&#xA;M513.966064,216.339417 &#xA;&#x9;C511.814819,216.339386 510.139679,216.450851 508.486481,216.308029 &#xA;&#x9;C506.628418,216.147522 504.104980,217.211685 503.263062,214.652115 &#xA;&#x9;C502.406830,212.049026 503.338806,209.288773 505.656616,208.110626 &#xA;&#x9;C508.777618,206.524231 509.534271,204.115479 510.233215,201.072495 &#xA;&#x9;C511.335999,196.271530 514.600098,192.900497 518.877808,190.598312 &#xA;&#x9;C523.168579,188.289093 526.425964,185.211899 527.633118,180.289963 &#xA;&#x9;C528.096497,178.400421 529.036987,176.674286 531.422791,177.382050 &#xA;&#x9;C533.532104,178.007797 534.027832,179.913803 533.843079,181.821487 &#xA;&#x9;C533.271484,187.723709 530.184143,192.070251 525.158325,195.070557 &#xA;&#x9;C522.862915,196.440842 520.425659,197.676437 518.900269,199.933640 &#xA;&#x9;C516.999817,202.745834 514.910339,205.580566 519.955566,207.783340 &#xA;&#x9;C522.409302,208.854614 523.368408,211.508179 522.816101,214.168411 &#xA;&#x9;C522.171753,217.271957 519.427185,216.077576 517.447388,216.313019 &#xA;&#x9;C516.461853,216.430222 515.451172,216.336823 513.966064,216.339417 &#xA;z"></path>
<path fill="#ffffff" opacity="1.000000" stroke="none" d="&#xA;M540.200378,286.063232 &#xA;&#x9;C538.649048,289.030090 536.275696,289.397125 533.649170,289.391815 &#xA;&#x9;C519.833008,289.364014 506.016479,289.331909 492.200714,289.411774 &#xA;&#x9;C487.643219,289.438110 485.382385,287.266357 485.188293,282.852020 &#xA;&#x9;C484.963837,277.747131 487.093994,275.029297 492.005341,274.971039 &#xA;&#x9;C505.985809,274.805267 519.971313,274.762512 533.950806,274.961273 &#xA;&#x9;C539.814026,275.044617 541.659302,278.492523 540.200378,286.063232 &#xA;z"></path>
<path fill="#ffffff" opacity="1.000000" stroke="none" d="&#xA;M578.591370,268.828827 &#xA;&#x9;C572.719971,270.904266 567.060913,270.233490 561.479553,269.694611 &#xA;&#x9;C557.623291,269.322266 556.513245,266.387756 556.521362,262.827728 &#xA;&#x9;C556.529663,259.166565 557.343750,256.178986 561.594849,255.537476 &#xA;&#x9;C566.219482,254.839584 570.900024,254.758499 575.498901,255.341843 &#xA;&#x9;C581.467163,256.098907 583.019897,262.450958 578.591370,268.828827 &#xA;z"></path>
<path fill="#ffffff" opacity="1.000000" stroke="none" d="&#xA;M446.022766,258.064758 &#xA;&#x9;C447.588013,255.906860 449.495880,255.569244 451.575806,255.586685 &#xA;&#x9;C455.238953,255.617401 458.903870,255.537415 462.565552,255.617538 &#xA;&#x9;C467.886536,255.733978 469.914795,257.739990 469.980133,262.775024 &#xA;&#x9;C470.040283,267.410522 467.917725,269.691315 462.983002,269.982086 &#xA;&#x9;C459.995392,270.158081 456.989807,270.087280 453.993439,270.044403 &#xA;&#x9;C445.856201,269.928040 443.482452,266.540314 446.022766,258.064758 &#xA;z"></path>
<path fill="#ffffff" opacity="1.000000" stroke="none" d="&#xA;M561.153564,282.876648 &#xA;&#x9;C559.686279,288.891663 557.002441,290.480438 550.766174,289.276398 &#xA;&#x9;C546.278687,288.409973 545.726318,284.935394 545.921021,281.271637 &#xA;&#x9;C546.154480,276.878967 548.776978,274.813232 553.675659,274.824371 &#xA;&#x9;C558.975647,274.836426 560.576111,276.466095 561.153564,282.876648 &#xA;z"></path>
<path fill="#ffffff" opacity="1.000000" stroke="none" d="&#xA;M475.829376,266.878754 &#xA;&#x9;C473.810791,259.159576 476.031708,255.314636 482.139679,255.259735 &#xA;&#x9;C487.810181,255.208755 490.490967,257.964111 490.085602,263.426697 &#xA;&#x9;C489.726715,268.263062 486.313629,270.750122 481.034607,270.048615 &#xA;&#x9;C478.981659,269.775818 477.217926,269.025208 475.829376,266.878754 &#xA;z"></path>
<path fill="#ffffff" opacity="1.000000" stroke="none" d="&#xA;M521.397217,255.445953 &#xA;&#x9;C523.935669,255.450821 526.252319,255.088928 528.090637,256.353027 &#xA;&#x9;C531.082520,258.410339 531.313171,261.615112 530.770874,264.847260 &#xA;&#x9;C530.137024,268.625397 527.434875,269.992767 523.932922,270.051666 &#xA;&#x9;C520.661560,270.106750 517.516296,269.680878 516.135254,266.050842 &#xA;&#x9;C514.287659,261.194458 516.152588,257.217926 521.397217,255.445953 &#xA;z"></path>
<path fill="#ffffff" opacity="1.000000" stroke="none" d="&#xA;M477.714264,276.106018 &#xA;&#x9;C480.912903,279.427307 480.892212,282.972351 479.312164,286.495972 &#xA;&#x9;C477.796570,289.875671 474.549377,289.524445 471.549591,289.451599 &#xA;&#x9;C466.980011,289.340637 465.052429,286.727692 465.009583,282.438965 &#xA;&#x9;C464.961334,277.608826 467.126678,275.136902 471.595642,274.876282 &#xA;&#x9;C473.583893,274.760315 475.580200,274.769012 477.714264,276.106018 &#xA;z"></path>
<path fill="#ffffff" opacity="1.000000" stroke="none" d="&#xA;M536.781128,266.194885 &#xA;&#x9;C536.194641,258.142151 537.167847,256.028442 541.843933,255.357880 &#xA;&#x9;C545.203369,254.876099 548.771851,254.777374 550.458435,258.498138 &#xA;&#x9;C551.950195,261.789093 552.225769,265.446991 549.397217,268.213104 &#xA;&#x9;C546.595520,270.952911 543.023987,270.526367 539.593323,269.331818 &#xA;&#x9;C538.292908,268.878998 537.440308,267.829437 536.781128,266.194885 &#xA;z"></path>
<path fill="#ffffff" opacity="1.000000" stroke="none" d="&#xA;M496.415710,267.517578 &#xA;&#x9;C493.523743,259.102905 496.630188,254.656677 504.192108,255.415588 &#xA;&#x9;C508.816681,255.879715 510.322998,258.438599 510.361389,262.722260 &#xA;&#x9;C510.401276,267.172455 508.355743,269.596313 504.017487,269.970245 &#xA;&#x9;C501.353363,270.199860 498.714874,269.910828 496.415710,267.517578 &#xA;z"></path>
<path fill="#ffffff" opacity="1.000000" stroke="none" d="&#xA;M566.019653,283.717194 &#xA;&#x9;C565.880676,279.137543 566.788147,275.655945 571.725403,274.934296 &#xA;&#x9;C577.030701,274.158783 580.426392,275.828522 581.031189,279.936005 &#xA;&#x9;C581.573914,283.621857 581.618896,287.522034 577.185303,289.092285 &#xA;&#x9;C572.000977,290.928497 568.047668,289.033203 566.019653,283.717194 &#xA;z"></path>
<path fill="#ffffff" opacity="1.000000" stroke="none" d="&#xA;M458.498291,287.608398 &#xA;&#x9;C452.901642,290.527374 447.678955,289.998199 445.823334,286.467651 &#xA;&#x9;C444.163879,283.310364 444.208984,279.870331 446.416046,277.106201 &#xA;&#x9;C448.926208,273.962433 452.662537,274.425964 456.036621,275.413818 &#xA;&#x9;C459.483673,276.423065 459.963348,279.522217 460.093170,282.603821 &#xA;&#x9;C460.164368,284.295044 459.712158,285.868073 458.498291,287.608398 &#xA;z"></path>
<path fill="#ffffff" opacity="1.000000" stroke="none" d="&#xA;M576.529663,250.156555 &#xA;&#x9;C568.920227,250.389145 566.611206,249.240143 566.146484,244.833374 &#xA;&#x9;C565.744019,241.016693 566.108765,237.101624 570.715637,236.094101 &#xA;&#x9;C574.486816,235.269363 578.530396,235.086319 580.584167,239.588104 &#xA;&#x9;C582.418152,243.608337 581.011414,247.534836 576.529663,250.156555 &#xA;z"></path>
<path fill="#ffffff" opacity="1.000000" stroke="none" d="&#xA;M527.620972,237.590424 &#xA;&#x9;C531.686462,235.102936 535.743530,234.604721 538.958435,237.692505 &#xA;&#x9;C541.689453,240.315460 541.626221,244.217041 539.861328,247.468536 &#xA;&#x9;C537.663635,251.517487 533.499817,250.711823 530.019775,250.041138 &#xA;&#x9;C526.549927,249.372391 525.728088,246.295410 525.744507,243.042343 &#xA;&#x9;C525.754028,241.147430 526.218689,239.432907 527.620972,237.590424 &#xA;z"></path>
<path fill="#ffffff" opacity="1.000000" stroke="none" d="&#xA;M458.745728,238.351227 &#xA;&#x9;C461.122925,246.223587 459.210236,250.071457 453.192047,250.321609 &#xA;&#x9;C447.356079,250.564194 444.755890,248.318741 444.874054,243.138519 &#xA;&#x9;C444.998169,237.697876 447.917358,235.304367 453.714813,235.789017 &#xA;&#x9;C455.621704,235.948410 457.267365,236.512650 458.745728,238.351227 &#xA;z"></path>
<path fill="#ffffff" opacity="1.000000" stroke="none" d="&#xA;M465.036743,243.887207 &#xA;&#x9;C465.114868,239.147476 466.659668,236.029373 471.542633,235.779572 &#xA;&#x9;C475.236938,235.590622 478.537994,236.077133 479.773926,240.395645 &#xA;&#x9;C481.070435,244.925934 479.263824,249.185928 475.519745,250.139465 &#xA;&#x9;C469.838531,251.586349 466.574097,249.764786 465.036743,243.887207 &#xA;z"></path>
<path fill="#ffffff" opacity="1.000000" stroke="none" d="&#xA;M561.087280,243.061386 &#xA;&#x9;C560.002380,249.431793 558.375122,250.712906 552.399292,250.315323 &#xA;&#x9;C548.003174,250.022842 545.834290,247.702484 545.943604,243.219803 &#xA;&#x9;C546.044189,239.094543 547.664734,236.189316 552.253784,235.779922 &#xA;&#x9;C557.738892,235.290588 559.869263,236.915421 561.087280,243.061386 &#xA;z"></path>
<path fill="#ffffff" opacity="1.000000" stroke="none" d="&#xA;M500.228149,242.194626 &#xA;&#x9;C500.352722,245.788254 499.858582,248.935455 496.403046,249.883850 &#xA;&#x9;C493.436371,250.698059 490.050964,251.243286 487.361755,248.986053 &#xA;&#x9;C484.518127,246.599182 485.368866,243.190018 485.730011,240.128510 &#xA;&#x9;C486.042145,237.482819 488.050720,236.147644 490.572510,235.896835 &#xA;&#x9;C493.728882,235.582901 497.014832,235.321198 499.064972,238.524567 &#xA;&#x9;C499.666748,239.464905 499.838470,240.680450 500.228149,242.194626 &#xA;z"></path>
<path fill="#ffffff" opacity="1.000000" stroke="none" d="&#xA;M519.298828,248.058228 &#xA;&#x9;C515.729797,251.197815 511.918060,250.997986 508.363525,249.468674 &#xA;&#x9;C505.317810,248.158249 505.466370,244.959579 505.616699,242.100922 &#xA;&#x9;C505.863922,237.401016 507.928589,235.659012 513.093567,235.738297 &#xA;&#x9;C518.188049,235.816498 520.199280,237.634903 520.327087,242.386703 &#xA;&#x9;C520.375549,244.188599 520.523071,246.033691 519.298828,248.058228 &#xA;z"></path>
</svg>